<?xml version="1.0" encoding="utf-8"?>
<svg xmlns="http://www.w3.org/2000/svg" style="margin: auto; background: none; display: block; shape-rendering: auto;" width="248" height="45" preserveAspectRatio="xMidYMid">
<style type="text/css">
  text {
    text-anchor: middle; font-size: 46px; opacity: 0;
  }
</style>
<g style="transform-origin: 124px 22.5px; transform: scale(0.575);">
<g transform="translate(124,22.5)">
  <g transform="translate(0,0)"><g class="path" style="transform: matrix(1, 0, 0, 1, 0, 14.925); opacity: 0.05; transform-origin: -115.16px -2.41303px; animation: 1s linear 0s 1 normal forwards running float-btt-in-d7387ceb-f3ca-45ed-b548-ac0c44699b5b;"><path d="M21.84-24.48L21.84-24.48L21.84-24.48Q26-25.84 31.52-25.84L31.52-25.84L31.52-25.84Q37.04-25.84 37.04-22.64L37.04-22.64L37.04-22.64Q37.04-20.72 34.96-19.48L34.96-19.48L34.96-19.48Q32.88-18.24 28.96-18.24L28.96-18.24L28.96-18.24Q22.80-18.24 19.04-21.20L19.04-21.20L19.04-21.20Q17.60-19.68 16.80-18.64L16.80-18.64L16.80-18.64Q16-17.60 15-14.64L15-14.64L15-14.64Q14-11.68 14-7.52L14-7.52L14-7.52Q14-3.36 17.52-0.28L17.52-0.28L17.52-0.28Q21.04 2.80 24.84 2.80L24.84 2.80L24.84 2.80Q28.64 2.80 31.92 1.36L31.92 1.36L31.92 1.36Q35.20-0.08 37.12-2L37.12-2L37.12-2Q39.04-3.92 40.48-6.24L40.48-6.24L40.48-6.24Q42.48-9.20 43.12-11.44L43.12-11.44L44.72-11.04L44.72-11.04Q44.72-10.80 44.12-9.36L44.12-9.36L44.12-9.36Q43.52-7.92 41.92-5.56L41.92-5.56L41.92-5.56Q40.32-3.20 38.08-1L38.08-1L38.08-1Q35.84 1.20 31.92 2.80L31.92 2.80L31.92 2.80Q28 4.40 23.36 4.40L23.36 4.40L23.36 4.40Q14.80 4.40 10 0.76L10 0.76L10 0.76Q5.20-2.88 5.20-8.72L5.20-8.72L5.20-8.72Q5.20-14.56 8.84-18L8.84-18L8.84-18Q12.48-21.44 17.44-22.80L17.44-22.80L17.44-22.80Q13.84-27.20 13.84-33.24L13.84-33.24L13.84-33.24Q13.84-39.28 18.68-44L18.68-44L18.68-44Q23.52-48.72 32.64-48.72L32.64-48.72L32.64-48.72Q39.60-48.72 43.32-46.28L43.32-46.28L43.32-46.28Q47.04-43.84 47.04-40.20L47.04-40.20L47.04-40.20Q47.04-36.56 45.16-32.76L45.16-32.76L45.16-32.76Q43.28-28.96 43.04-26.72L43.04-26.72L41.36-26.72L41.36-26.72Q41.60-29.12 43.48-32.88L43.48-32.88L43.48-32.88Q45.36-36.64 45.36-39.88L45.36-39.88L45.36-39.88Q45.36-43.12 41.96-45.20L41.96-45.20L41.96-45.20Q38.56-47.28 33.32-47.28L33.32-47.28L33.32-47.28Q28.08-47.28 24.40-43.24L24.40-43.24L24.40-43.24Q20.72-39.20 20.72-30.88L20.72-30.88L20.72-30.88Q20.72-26.40 21.84-24.48zM23.04-22.16L23.04-22.16L23.04-22.16Q23.44-21.60 25.08-20.64L25.08-20.64L25.08-20.64Q26.72-19.68 29.44-19.68L29.44-19.68L29.44-19.68Q32.16-19.68 33.80-20.52L33.80-20.52L33.80-20.52Q35.44-21.36 35.44-22.48L35.44-22.48L35.44-22.48Q35.44-24.40 31.12-24.40L31.12-24.40L31.12-24.40Q26.80-24.40 22.48-23.12L22.48-23.12L22.48-23.12Q22.64-22.72 23.04-22.16" fill="#0051a2" stroke="none" stroke-width="none" transform="translate(-141.28000450134277,19.746971130371094)" style="fill: rgb(0, 81, 162);"></path></g><g class="path" style="transform: matrix(1, 0, 0, 1, 0, 14.925); opacity: 0.05; transform-origin: -77.04px 4.54697px; animation: 1s linear 0.0942857s 1 normal forwards running float-btt-in-d7387ceb-f3ca-45ed-b548-ac0c44699b5b;"><path d="M69.04-16.72L69.04-16.72L69.04-16.72Q67.36-18.40 67.36-20.80L67.36-20.80L67.36-20.80Q67.36-23.20 69.04-24.92L69.04-24.92L69.04-24.92Q70.72-26.64 73.12-26.64L73.12-26.64L73.12-26.64Q73.84-26.64 74.96-26.32L74.96-26.32L74.96-26.32Q73.44-29.12 69.28-29.12L69.28-29.12L69.28-29.12Q65.12-29.12 61.92-23.84L61.92-23.84L61.92-23.84Q58.72-18.56 58.72-8.16L58.72-8.16L58.72-8.16Q58.72-4.56 60.36-2.84L60.36-2.84L60.36-2.84Q62-1.12 64.48-1.12L64.48-1.12L64.48-1.12Q66.96-1.12 69-2.08L69-2.08L69-2.08Q71.04-3.04 72.24-4.36L72.24-4.36L72.24-4.36Q73.44-5.68 74.32-7.12L74.32-7.12L74.32-7.12Q75.92-9.76 75.92-10.48L75.92-10.48L77.36-9.84L77.36-9.84Q77.12-8.56 75.92-6.44L75.92-6.44L75.92-6.44Q74.72-4.32 73.28-2.96L73.28-2.96L73.28-2.96Q71.84-1.60 69.04-0.44L69.04-0.44L69.04-0.44Q66.24 0.72 62.80 0.72L62.80 0.72L62.80 0.72Q56.32 0.72 53-2.36L53-2.36L53-2.36Q49.68-5.44 49.68-10.80L49.68-10.80L49.68-10.80Q49.68-20.32 54.44-25.72L54.44-25.72L54.44-25.72Q59.20-31.12 67.36-31.12L67.36-31.12L67.36-31.12Q72.88-31.12 75.84-28.32L75.84-28.32L75.84-28.32Q78.80-25.52 78.80-20.96L78.80-20.96L78.80-20.96Q78.80-18.08 77.08-16.56L77.08-16.56L77.08-16.56Q75.36-15.04 73.04-15.04L73.04-15.04L73.04-15.04Q70.72-15.04 69.04-16.72" fill="#0051a2" stroke="none" stroke-width="none" transform="translate(-141.28000450134277,19.746971130371094)" style="fill: rgb(27, 117, 190);"></path></g><g class="path" style="transform: matrix(1, 0, 0, 1, 0, 14.925); opacity: 0.05; transform-origin: -43.44px 4.54697px; animation: 1s linear 0.188571s 1 normal forwards running float-btt-in-d7387ceb-f3ca-45ed-b548-ac0c44699b5b;"><path d="M94.72 0.72L94.72 0.72Q88.56 0.72 85.36-2.36L85.36-2.36L85.36-2.36Q82.16-5.44 82.16-10.12L82.16-10.12L82.16-10.12Q82.16-14.80 83-18.12L83-18.12L83-18.12Q83.84-21.44 85.76-24.52L85.76-24.52L85.76-24.52Q87.68-27.60 91.56-29.36L91.56-29.36L91.56-29.36Q95.44-31.12 101.24-31.12L101.24-31.12L101.24-31.12Q107.04-31.12 110.28-28.04L110.28-28.04L110.28-28.04Q113.52-24.96 113.52-19.60L113.52-19.60L113.52-19.60Q113.52-10.48 108.68-4.88L108.68-4.88L108.68-4.88Q103.84 0.72 94.72 0.72L94.72 0.72zM91.20-7.52L91.20-7.52L91.20-7.52Q91.20-1.12 94.92-1.12L94.92-1.12L94.92-1.12Q98.64-1.12 101.56-7.56L101.56-7.56L101.56-7.56Q104.48-14 104.48-22.88L104.48-22.88L104.48-22.88Q104.48-29.60 100.84-29.60L100.84-29.60L100.84-29.60Q97.20-29.60 94.20-23.48L94.20-23.48L94.20-23.48Q91.20-17.36 91.20-7.52" fill="#0051a2" stroke="none" stroke-width="none" transform="translate(-141.28000450134277,19.746971130371094)" style="fill: rgb(64, 142, 224);"></path></g><g class="path" style="transform: matrix(1, 0, 0, 1, 0, 14.925); opacity: 0.05; transform-origin: -5.64001px 4.54697px; animation: 1s linear 0.282857s 1 normal forwards running float-btt-in-d7387ceb-f3ca-45ed-b548-ac0c44699b5b;"><path d="M148.40-0.88L148.40-0.88L148.40-0.88Q150.32-0.88 152.40-3.12L152.40-3.12L153.60-2.16L153.60-2.16Q153.04-1.04 151.12-0.16L151.12-0.16L151.12-0.16Q149.20 0.72 146.88 0.72L146.88 0.72L146.88 0.72Q139.60 0.72 139.60-5.84L139.60-5.84L139.60-5.84Q139.60-8.64 141.04-15.84L141.04-15.84L141.04-15.84Q142.48-23.04 142.48-25.28L142.48-25.28L142.48-25.28Q142.48-28.72 139.20-28.72L139.20-28.72L139.20-28.72Q136.56-28.72 134.12-25.28L134.12-25.28L134.12-25.28Q131.68-21.84 130.08-15.84L130.08-15.84L127.36-0.88L127.36-0.88Q129.84-1.12 131.44-3.12L131.44-3.12L132.64-2.16L132.64-2.16Q130.24 0.72 126.64 0.72L126.64 0.72L126.64 0.72Q123.04 0.72 121-1.12L121-1.12L121-1.12Q118.96-2.96 118.96-5.92L118.96-5.92L118.96-5.92Q118.96-7.04 120.24-14.72L120.24-14.72L122.88-29.52L122.88-29.52Q120.48-29.28 118.88-27.28L118.88-27.28L117.68-28.24L117.68-28.24Q120.08-31.12 123.72-31.12L123.72-31.12L123.72-31.12Q127.36-31.12 129.36-29.28L129.36-29.28L129.36-29.28Q131.36-27.44 131.36-24.08L131.36-24.08L131.36-23.60L131.36-23.60Q134.64-31.12 141.60-31.12L141.60-31.12L141.60-31.12Q146.32-31.12 148.96-28.44L148.96-28.44L148.96-28.44Q151.60-25.76 151.60-21.04L151.60-21.04L151.60-21.04Q151.60-18.56 150.08-11.48L150.08-11.48L150.08-11.48Q148.56-4.40 148.40-0.88" fill="#0051a2" stroke="none" stroke-width="none" transform="translate(-141.28000450134277,19.746971130371094)" style="fill: rgb(137, 191, 248);"></path></g><g class="path" style="transform: matrix(1, 0, 0, 1, 0, 14.925); opacity: 0.05; transform-origin: 31.76px 4.54697px; animation: 1s linear 0.377143s 1 normal forwards running float-btt-in-d7387ceb-f3ca-45ed-b548-ac0c44699b5b;"><path d="M169.92 0.72L169.92 0.72Q163.76 0.72 160.56-2.36L160.56-2.36L160.56-2.36Q157.36-5.44 157.36-10.12L157.36-10.12L157.36-10.12Q157.36-14.80 158.20-18.12L158.20-18.12L158.20-18.12Q159.04-21.44 160.96-24.52L160.96-24.52L160.96-24.52Q162.88-27.60 166.76-29.36L166.76-29.36L166.76-29.36Q170.64-31.12 176.44-31.12L176.44-31.12L176.44-31.12Q182.24-31.12 185.48-28.04L185.48-28.04L185.48-28.04Q188.72-24.96 188.72-19.60L188.72-19.60L188.72-19.60Q188.72-10.48 183.88-4.88L183.88-4.88L183.88-4.88Q179.04 0.72 169.92 0.72L169.92 0.72zM166.40-7.52L166.40-7.52L166.40-7.52Q166.40-1.12 170.12-1.12L170.12-1.12L170.12-1.12Q173.84-1.12 176.76-7.56L176.76-7.56L176.76-7.56Q179.68-14 179.68-22.88L179.68-22.88L179.68-22.88Q179.68-29.60 176.04-29.60L176.04-29.60L176.04-29.60Q172.40-29.60 169.40-23.48L169.40-23.48L169.40-23.48Q166.40-17.36 166.40-7.52" fill="#0051a2" stroke="none" stroke-width="none" transform="translate(-141.28000450134277,19.746971130371094)" style="fill: rgb(227, 241, 255);"></path></g><g class="path" style="transform: matrix(1, 0, 0, 1, 0, 14.925); opacity: 0.05; transform-origin: 79.52px 4.54697px; animation: 1s linear 0.471429s 1 normal forwards running float-btt-in-d7387ceb-f3ca-45ed-b548-ac0c44699b5b;"><path d="M223.12-0.88L223.12-0.88L223.12-0.88Q225.04-0.88 227.12-3.12L227.12-3.12L228.32-2.16L228.32-2.16Q227.76-1.04 225.84-0.16L225.84-0.16L225.84-0.16Q223.92 0.72 221.60 0.72L221.60 0.72L221.60 0.72Q214.32 0.72 214.32-5.84L214.32-5.84L214.32-5.84Q214.32-8.64 215.76-15.84L215.76-15.84L215.76-15.84Q217.20-23.04 217.20-25.28L217.20-25.28L217.20-25.28Q217.20-28.72 213.92-28.72L213.92-28.72L213.92-28.72Q208.96-28.72 205.60-16L205.60-16L202.72 0L193.12 0L198.40-29.52L198.40-29.52Q196-29.28 194.40-27.28L194.40-27.28L193.20-28.24L193.20-28.24Q195.60-31.12 199.24-31.12L199.24-31.12L199.24-31.12Q202.88-31.12 204.88-29.28L204.88-29.28L204.88-29.28Q206.88-27.44 206.88-24.08L206.88-24.08L206.88-23.84L206.88-23.84Q210-31.12 216.32-31.12L216.32-31.12L216.32-31.12Q220.80-31.12 223.40-28.68L223.40-28.68L223.40-28.68Q226-26.24 226.24-21.84L226.24-21.84L226.24-21.84Q227.76-26.24 230.08-28.68L230.08-28.68L230.08-28.68Q232.40-31.12 236.80-31.12L236.80-31.12L236.80-31.12Q241.20-31.12 243.84-28.44L243.84-28.44L243.84-28.44Q246.48-25.76 246.48-21.04L246.48-21.04L246.48-21.04Q246.48-18.56 244.96-11.48L244.96-11.48L244.96-11.48Q243.44-4.40 243.28-0.88L243.28-0.88L243.28-0.88Q245.20-0.88 247.28-3.12L247.28-3.12L248.48-2.16L248.48-2.16Q247.92-1.04 246-0.16L246-0.16L246-0.16Q244.08 0.72 241.76 0.72L241.76 0.72L241.76 0.72Q234.48 0.72 234.48-5.84L234.48-5.84L234.48-5.84Q234.48-8.64 235.92-15.84L235.92-15.84L235.92-15.84Q237.36-23.04 237.36-25.28L237.36-25.28L237.36-25.28Q237.36-28.72 234.08-28.72L234.08-28.72L234.08-28.72Q228.32-28.72 224.80-11.60L224.80-11.60L224.80-11.60Q223.28-4.32 223.12-0.88" fill="#0051a2" stroke="none" stroke-width="none" transform="translate(-141.28000450134277,19.746971130371094)" style="fill: rgb(0, 81, 162);"></path></g><g class="path" style="transform: matrix(1, 0, 0, 1, 0, 14.925); opacity: 0.05; transform-origin: 128.56px 11.547px; animation: 1s linear 0.565714s 1 normal forwards running float-btt-in-d7387ceb-f3ca-45ed-b548-ac0c44699b5b;"><path d="M257.20-29.52L257.20-29.52L257.20-29.52Q255.28-29.52 253.20-27.28L253.20-27.28L252.00-28.24L252.00-28.24Q252.56-29.36 254.48-30.24L254.48-30.24L254.48-30.24Q256.40-31.12 258.72-31.12L258.72-31.12L258.72-31.12Q266-31.12 266-24.56L266-24.56L266-24.56Q266-21.76 264.48-15.40L264.48-15.40L264.48-15.40Q262.96-9.04 262.96-6.80L262.96-6.80L262.96-6.80Q262.96-2.96 266.16-2.96L266.16-2.96L266.16-2.96Q268.80-2.96 271.32-6.56L271.32-6.56L271.32-6.56Q273.84-10.16 275.44-16.24L275.44-16.24L278.08-30.40L278.08-30.40Q284-30.40 286.72-30.88L286.72-30.88L287.76-31.12L282.72-2.80L282.72-2.80Q281.28 5.44 276.04 10.08L276.04 10.08L276.04 10.08Q270.80 14.72 262.48 14.72L262.48 14.72L262.48 14.72Q257.44 14.72 254.68 13L254.68 13L254.68 13Q251.92 11.28 251.92 8.52L251.92 8.52L251.92 8.52Q251.92 5.76 253.60 4.12L253.60 4.12L253.60 4.12Q255.28 2.48 258.36 2.48L258.36 2.48L258.36 2.48Q261.44 2.48 264.08 3.48L264.08 3.48L264.08 3.48Q266.72 4.48 267.92 4.64L267.92 4.64L267.76 6.08L267.76 6.08Q266.40 5.92 263.84 4.96L263.84 4.96L263.84 4.96Q261.28 4 258.76 4L258.76 4L258.76 4Q256.24 4 254.92 5.12L254.92 5.12L254.92 5.12Q253.60 6.24 253.60 8.36L253.60 8.36L253.60 8.36Q253.60 10.48 255.92 11.80L255.92 11.80L255.92 11.80Q258.24 13.12 261.68 13.12L261.68 13.12L261.68 13.12Q270 13.12 271.92 3.12L271.92 3.12L273.92-7.92L273.92-7.92Q270.56-0.56 263.76-0.56L263.76-0.56L263.76-0.56Q259.12-0.56 256.60-3.20L256.60-3.20L256.60-3.20Q254.08-5.84 254.08-10.64L254.08-10.64L254.08-10.64Q254.08-13.12 255.56-19.56L255.56-19.56L255.56-19.56Q257.04-26 257.20-29.52" fill="#0051a2" stroke="none" stroke-width="none" transform="translate(-141.28000450134277,19.746971130371094)" style="fill: rgb(27, 117, 190);"></path></g></g>
</g>
</g>
<style id="float-btt-in-d7387ceb-f3ca-45ed-b548-ac0c44699b5b" data-anikit="">@keyframes float-btt-in-d7387ceb-f3ca-45ed-b548-ac0c44699b5b
{
  0% {
    animation-timing-function: cubic-bezier(0.2242,0.7499,0.3142,0.8148);
    transform: translate(0px,14.925px) rotate(0deg) scale(1,1) skewX(0deg) skewY(0deg);
    opacity: 0.05;
  }
  100% {
    transform: translate(0px,0px) rotate(0deg) scale(1,1) skewX(0deg) skewY(0deg);
    opacity: 1;
  }
}</style></svg>