<?xml version="1.0" encoding="utf-8"?>
<svg xmlns="http://www.w3.org/2000/svg" style="margin: auto; background: none; display: block; shape-rendering: auto;" width="253" height="45" preserveAspectRatio="xMidYMid">
<style type="text/css">
  text {
    text-anchor: middle; font-size: 36px; opacity: 0;
  }
</style>
<g style="transform-origin: 126.5px 22.5px; transform: scale(1.5);">
<g transform="translate(126.5,22.5)">
  <g transform="translate(0,0)"><g class="path" style="transform: matrix(1, 0, 0, 1, 0, 14.925); opacity: 0.05; transform-origin: -61.575px -0.942401px; animation: 1s linear 0s 1 normal forwards running float-btt-in-d7387ceb-f3ca-45ed-b548-ac0c44699b5b;"><path d="M6.55-7.34L6.55-7.34L6.55-7.34Q7.80-7.75 9.46-7.75L9.46-7.75L9.46-7.75Q11.11-7.75 11.11-6.79L11.11-6.79L11.11-6.79Q11.11-6.22 10.49-5.84L10.49-5.84L10.49-5.84Q9.86-5.47 8.69-5.47L8.69-5.47L8.69-5.47Q6.84-5.47 5.71-6.36L5.71-6.36L5.71-6.36Q5.28-5.90 5.04-5.59L5.04-5.59L5.04-5.59Q4.80-5.28 4.50-4.39L4.50-4.39L4.50-4.39Q4.20-3.50 4.20-2.26L4.20-2.26L4.20-2.26Q4.20-1.01 5.26-0.08L5.26-0.08L5.26-0.08Q6.31 0.84 7.45 0.84L7.45 0.84L7.45 0.84Q8.59 0.84 9.58 0.41L9.58 0.41L9.58 0.41Q10.56-0.02 11.14-0.60L11.14-0.60L11.14-0.60Q11.71-1.18 12.14-1.87L12.14-1.87L12.14-1.87Q12.74-2.76 12.94-3.43L12.94-3.43L13.42-3.31L13.42-3.31Q13.42-3.24 13.24-2.81L13.24-2.81L13.24-2.81Q13.06-2.38 12.58-1.67L12.58-1.67L12.58-1.67Q12.10-0.96 11.42-0.30L11.42-0.30L11.42-0.30Q10.75 0.36 9.58 0.84L9.58 0.84L9.58 0.84Q8.40 1.32 7.01 1.32L7.01 1.32L7.01 1.32Q4.44 1.32 3 0.23L3 0.23L3 0.23Q1.56-0.86 1.56-2.62L1.56-2.62L1.56-2.62Q1.56-4.37 2.65-5.40L2.65-5.40L2.65-5.40Q3.74-6.43 5.23-6.84L5.23-6.84L5.23-6.84Q4.15-8.16 4.15-9.97L4.15-9.97L4.15-9.97Q4.15-11.78 5.60-13.20L5.60-13.20L5.60-13.20Q7.06-14.62 9.79-14.62L9.79-14.62L9.79-14.62Q11.88-14.62 13.00-13.88L13.00-13.88L13.00-13.88Q14.11-13.15 14.11-12.06L14.11-12.06L14.11-12.06Q14.11-10.97 13.55-9.83L13.55-9.83L13.55-9.83Q12.98-8.69 12.91-8.02L12.91-8.02L12.41-8.02L12.41-8.02Q12.48-8.74 13.04-9.86L13.04-9.86L13.04-9.86Q13.61-10.99 13.61-11.96L13.61-11.96L13.61-11.96Q13.61-12.94 12.59-13.56L12.59-13.56L12.59-13.56Q11.57-14.18 10.00-14.18L10.00-14.18L10.00-14.18Q8.42-14.18 7.32-12.97L7.32-12.97L7.32-12.97Q6.22-11.76 6.22-9.26L6.22-9.26L6.22-9.26Q6.22-7.92 6.55-7.34zM6.91-6.65L6.91-6.65L6.91-6.65Q7.03-6.48 7.52-6.19L7.52-6.19L7.52-6.19Q8.02-5.90 8.83-5.90L8.83-5.90L8.83-5.90Q9.65-5.90 10.14-6.16L10.14-6.16L10.14-6.16Q10.63-6.41 10.63-6.74L10.63-6.74L10.63-6.74Q10.63-7.32 9.34-7.32L9.34-7.32L9.34-7.32Q8.04-7.32 6.74-6.94L6.74-6.94L6.74-6.94Q6.79-6.82 6.91-6.65" fill="#0051a2" stroke="none" stroke-width="none" transform="translate(-69.40997314453125,5.707598131986762)" style="fill: rgb(0, 81, 162);"></path></g><g class="path" style="transform: matrix(1, 0, 0, 1, 0, 14.925); opacity: 0.05; transform-origin: -49.02px 1.1476px; animation: 1s linear 0.0507692s 1 normal forwards running float-btt-in-d7387ceb-f3ca-45ed-b548-ac0c44699b5b;"><path d="M24.22-0.26L24.22-0.26L24.22-0.26Q24.79-0.26 25.42-0.94L25.42-0.94L25.78-0.65L25.78-0.65Q25.61-0.31 25.03-0.05L25.03-0.05L25.03-0.05Q24.46 0.22 23.76 0.22L23.76 0.22L23.76 0.22Q21.58 0.22 21.58-1.75L21.58-1.75L21.58-1.75Q21.58-2.59 22.01-4.75L22.01-4.75L22.01-4.75Q22.44-6.91 22.44-7.58L22.44-7.58L22.44-7.58Q22.44-8.62 21.46-8.62L21.46-8.62L21.46-8.62Q20.66-8.62 19.93-7.58L19.93-7.58L19.93-7.58Q19.20-6.55 18.72-4.75L18.72-4.75L17.90-0.26L17.90-0.26Q18.65-0.34 19.13-0.94L19.13-0.94L19.49-0.65L19.49-0.65Q18.77 0.22 17.69 0.22L17.69 0.22L17.69 0.22Q16.61 0.22 16.00-0.34L16.00-0.34L16.00-0.34Q15.38-0.89 15.38-1.78L15.38-1.78L15.38-1.78Q15.38-2.11 15.77-4.42L15.77-4.42L16.56-8.86L16.56-8.86Q15.84-8.78 15.36-8.18L15.36-8.18L15-8.47L15-8.47Q15.72-9.34 16.81-9.34L16.81-9.34L16.81-9.34Q17.90-9.34 18.50-8.78L18.50-8.78L18.50-8.78Q19.10-8.23 19.10-7.22L19.10-7.22L19.10-7.08L19.10-7.08Q20.09-9.34 22.18-9.34L22.18-9.34L22.18-9.34Q23.59-9.34 24.38-8.53L24.38-8.53L24.38-8.53Q25.18-7.73 25.18-6.31L25.18-6.31L25.18-6.31Q25.18-5.57 24.72-3.44L24.72-3.44L24.72-3.44Q24.26-1.32 24.22-0.26" fill="#0051a2" stroke="none" stroke-width="none" transform="translate(-69.40997314453125,5.707598131986762)" style="fill: rgb(27, 117, 190);"></path></g><g class="path" style="transform: matrix(1, 0, 0, 1, 0, 14.925); opacity: 0.05; transform-origin: -37.655px 3.2476px; animation: 1s linear 0.101538s 1 normal forwards running float-btt-in-d7387ceb-f3ca-45ed-b548-ac0c44699b5b;"><path d="M34.80 2.62L34.80 2.62L34.80 2.62Q35.66 2.62 36.29 1.94L36.29 1.94L36.62 2.23L36.62 2.23Q36.05 3.05 34.80 3.05L34.80 3.05L34.80 3.05Q34.27 3.05 33.72 2.93L33.72 2.93L33.72 2.93Q32.09 4.42 29.54 4.42L29.54 4.42L29.54 4.42Q28.03 4.42 27.20 3.90L27.20 3.90L27.20 3.90Q26.38 3.38 26.38 2.56L26.38 2.56L26.38 2.56Q26.38 1.73 26.89 1.24L26.89 1.24L26.89 1.24Q27.41 0.74 28.73 0.74L28.73 0.74L28.73 0.74Q30.05 0.74 32.21 1.82L32.21 1.82L32.95-2.16L32.95-2.16Q31.87-0.17 30.17-0.17L30.17-0.17L30.17-0.17Q26.90-0.17 26.90-3.38L26.90-3.38L26.90-3.38Q26.90-6.07 28.26-7.70L28.26-7.70L28.26-7.70Q29.62-9.34 31.73-9.34L31.73-9.34L31.73-9.34Q32.95-9.34 33.62-8.59L33.62-8.59L33.62-8.59Q33.82-8.38 34.01-7.94L34.01-7.94L34.22-9.12L34.22-9.12Q36-9.12 36.82-9.26L36.82-9.26L37.13-9.34L35.54-0.48L35.54-0.48Q35.18 1.39 34.10 2.54L34.10 2.54L34.10 2.54Q34.42 2.62 34.80 2.62zM29.62-2.64L29.62-2.64Q29.62-1.54 29.83-1.16L29.83-1.16L29.83-1.16Q30.05-0.79 30.65-0.79L30.65-0.79L30.65-0.79Q31.25-0.79 31.87-1.44L31.87-1.44L31.87-1.44Q32.50-2.09 32.77-2.65L32.77-2.65L32.77-2.65Q33.05-3.22 33.24-3.74L33.24-3.74L33.74-6.50L33.74-6.67L33.74-6.67Q33.74-8.88 31.73-8.88L31.73-8.88L31.73-8.88Q30.96-8.88 30.29-6.79L30.29-6.79L30.29-6.79Q29.62-4.70 29.62-2.64L29.62-2.64zM29.45 3.94L29.45 3.94L29.45 3.94Q31.37 3.94 32.04 2.28L32.04 2.28L31.70 2.11L31.70 2.11Q31.42 1.97 31.36 1.93L31.36 1.93L31.36 1.93Q31.30 1.90 31.03 1.78L31.03 1.78L31.03 1.78Q30.77 1.66 30.65 1.62L30.65 1.62L30.65 1.62Q30.53 1.58 30.28 1.49L30.28 1.49L30.28 1.49Q30.02 1.39 29.86 1.36L29.86 1.36L29.86 1.36Q29.69 1.32 29.47 1.27L29.47 1.27L29.47 1.27Q29.11 1.20 28.42 1.20L28.42 1.20L28.42 1.20Q27.72 1.20 27.30 1.54L27.30 1.54L27.30 1.54Q26.88 1.87 26.88 2.52L26.88 2.52L26.88 2.52Q26.88 3.17 27.58 3.55L27.58 3.55L27.58 3.55Q28.27 3.94 29.45 3.94" fill="#0051a2" stroke="none" stroke-width="none" transform="translate(-69.40997314453125,5.707598131986762)" style="fill: rgb(64, 142, 224);"></path></g><g class="path" style="transform: matrix(1, 0, 0, 1, 0, 14.925); opacity: 0.05; transform-origin: -26.165px 1.1476px; animation: 1s linear 0.152308s 1 normal forwards running float-btt-in-d7387ceb-f3ca-45ed-b548-ac0c44699b5b;"><path d="M46.54 0.22L46.54 0.22L46.54 0.22Q44.42 0.22 44.23-1.63L44.23-1.63L44.23-1.63Q43.18 0.22 41.57 0.22L41.57 0.22L41.57 0.22Q39.96 0.22 39.01-0.76L39.01-0.76L39.01-0.76Q38.06-1.73 38.06-3.48L38.06-3.48L38.06-3.48Q38.06-6.22 39.41-7.78L39.41-7.78L39.41-7.78Q40.75-9.34 42.89-9.34L42.89-9.34L42.89-9.34Q44.64-9.34 45.22-7.68L45.22-7.68L45.22-7.68Q45.34-8.40 45.48-9.12L45.48-9.12L45.48-9.12Q47.26-9.12 48.12-9.26L48.12-9.26L48.43-9.34L46.78-0.26L46.78-0.26Q47.50-0.34 47.98-0.94L47.98-0.94L48.34-0.65L48.34-0.65Q47.62 0.22 46.54 0.22zM40.78-2.26L40.78-2.26Q40.78-1.18 41.05-0.76L41.05-0.76L41.05-0.76Q41.33-0.34 41.90-0.34L41.90-0.34L41.90-0.34Q42.48-0.34 43.08-0.96L43.08-0.96L43.08-0.96Q43.87-1.78 44.35-3.02L44.35-3.02L44.35-3.02Q44.42-3.34 44.63-4.52L44.63-4.52L44.63-4.52Q44.83-5.71 44.98-6.48L44.98-6.48L44.98-6.48Q44.90-7.39 44.47-8.06L44.47-8.06L44.47-8.06Q44.04-8.74 43.39-8.74L43.39-8.74L43.39-8.74Q42.22-8.74 41.50-6.64L41.50-6.64L41.50-6.64Q40.78-4.54 40.78-2.26L40.78-2.26" fill="#0051a2" stroke="none" stroke-width="none" transform="translate(-69.40997314453125,5.707598131986762)" style="fill: rgb(137, 191, 248);"></path></g><g class="path" style="transform: matrix(1, 0, 0, 1, 0, 14.925); opacity: 0.05; transform-origin: -14.885px 3.2476px; animation: 1s linear 0.203077s 1 normal forwards running float-btt-in-d7387ceb-f3ca-45ed-b548-ac0c44699b5b;"><path d="M57.58 2.62L57.58 2.62L57.58 2.62Q58.44 2.62 59.06 1.94L59.06 1.94L59.40 2.23L59.40 2.23Q58.82 3.05 57.58 3.05L57.58 3.05L57.58 3.05Q57.05 3.05 56.50 2.93L56.50 2.93L56.50 2.93Q54.86 4.42 52.32 4.42L52.32 4.42L52.32 4.42Q50.81 4.42 49.98 3.90L49.98 3.90L49.98 3.90Q49.15 3.38 49.15 2.56L49.15 2.56L49.15 2.56Q49.15 1.73 49.67 1.24L49.67 1.24L49.67 1.24Q50.18 0.74 51.50 0.74L51.50 0.74L51.50 0.74Q52.82 0.74 54.98 1.82L54.98 1.82L55.73-2.16L55.73-2.16Q54.65-0.17 52.94-0.17L52.94-0.17L52.94-0.17Q49.68-0.17 49.68-3.38L49.68-3.38L49.68-3.38Q49.68-6.07 51.04-7.70L51.04-7.70L51.04-7.70Q52.39-9.34 54.50-9.34L54.50-9.34L54.50-9.34Q55.73-9.34 56.40-8.59L56.40-8.59L56.40-8.59Q56.59-8.38 56.78-7.94L56.78-7.94L57-9.12L57-9.12Q58.78-9.12 59.59-9.26L59.59-9.26L59.90-9.34L58.32-0.48L58.32-0.48Q57.96 1.39 56.88 2.54L56.88 2.54L56.88 2.54Q57.19 2.62 57.58 2.62zM52.39-2.64L52.39-2.64Q52.39-1.54 52.61-1.16L52.61-1.16L52.61-1.16Q52.82-0.79 53.42-0.79L53.42-0.79L53.42-0.79Q54.02-0.79 54.65-1.44L54.65-1.44L54.65-1.44Q55.27-2.09 55.55-2.65L55.55-2.65L55.55-2.65Q55.82-3.22 56.02-3.74L56.02-3.74L56.52-6.50L56.52-6.67L56.52-6.67Q56.52-8.88 54.50-8.88L54.50-8.88L54.50-8.88Q53.74-8.88 53.06-6.79L53.06-6.79L53.06-6.79Q52.39-4.70 52.39-2.64L52.39-2.64zM52.22 3.94L52.22 3.94L52.22 3.94Q54.14 3.94 54.82 2.28L54.82 2.28L54.48 2.11L54.48 2.11Q54.19 1.97 54.13 1.93L54.13 1.93L54.13 1.93Q54.07 1.90 53.81 1.78L53.81 1.78L53.81 1.78Q53.54 1.66 53.42 1.62L53.42 1.62L53.42 1.62Q53.30 1.58 53.05 1.49L53.05 1.49L53.05 1.49Q52.80 1.39 52.63 1.36L52.63 1.36L52.63 1.36Q52.46 1.32 52.25 1.27L52.25 1.27L52.25 1.27Q51.89 1.20 51.19 1.20L51.19 1.20L51.19 1.20Q50.50 1.20 50.08 1.54L50.08 1.54L50.08 1.54Q49.66 1.87 49.66 2.52L49.66 2.52L49.66 2.52Q49.66 3.17 50.35 3.55L50.35 3.55L50.35 3.55Q51.05 3.94 52.22 3.94" fill="#0051a2" stroke="none" stroke-width="none" transform="translate(-69.40997314453125,5.707598131986762)" style="fill: rgb(227, 241, 255);"></path></g><g class="path" style="transform: matrix(1, 0, 0, 1, 0, 14.925); opacity: 0.05; transform-origin: -6.12997px 1.1476px; animation: 1s linear 0.253846s 1 normal forwards running float-btt-in-d7387ceb-f3ca-45ed-b548-ac0c44699b5b;"><path d="M65.28-0.65L65.28-0.65Q64.56 0.22 63.48 0.22L63.48 0.22L63.48 0.22Q62.40 0.22 61.79-0.34L61.79-0.34L61.79-0.34Q61.18-0.89 61.18-1.78L61.18-1.78L61.18-1.78Q61.18-2.09 61.56-4.39L61.56-4.39L62.35-8.69L61.34-8.69L61.39-9.12L62.42-9.12L62.42-9.12Q64.20-9.12 65.04-9.26L65.04-9.26L65.38-9.34L63.72-0.26L63.72-0.26Q64.44-0.34 64.92-0.94L64.92-0.94L65.28-0.65" fill="#0051a2" stroke="none" stroke-width="none" transform="translate(-69.40997314453125,5.707598131986762)" style="fill: rgb(0, 81, 162);"></path></g><g class="path" style="transform: matrix(1, 0, 0, 1, 0, 14.925); opacity: 0.05; transform-origin: -5.00997px -7.1724px; animation: 1s linear 0.304615s 1 normal forwards running float-btt-in-d7387ceb-f3ca-45ed-b548-ac0c44699b5b;"><path d="M63.17-11.64L63.17-11.64L63.17-11.64Q62.66-12.14 62.66-12.86L62.66-12.86L62.66-12.86Q62.66-13.58 63.17-14.10L63.17-14.10L63.17-14.10Q63.67-14.62 64.39-14.62L64.39-14.62L64.39-14.62Q65.11-14.62 65.63-14.10L65.63-14.10L65.63-14.10Q66.14-13.58 66.14-12.86L66.14-12.86L66.14-12.86Q66.14-12.14 65.63-11.64L65.63-11.64L65.63-11.64Q65.11-11.14 64.39-11.14L64.39-11.14L64.39-11.14Q63.67-11.14 63.17-11.64" fill="#0051a2" stroke="none" stroke-width="none" transform="translate(-69.40997314453125,5.707598131986762)" style="fill: rgb(27, 117, 190);"></path></g><g class="path" style="transform: matrix(1, 0, 0, 1, 0, 14.925); opacity: 0.05; transform-origin: 2.70003px 1.1476px; animation: 1s linear 0.355385s 1 normal forwards running float-btt-in-d7387ceb-f3ca-45ed-b548-ac0c44699b5b;"><path d="M75.94-0.26L75.94-0.26L75.94-0.26Q76.51-0.26 77.14-0.94L77.14-0.94L77.50-0.65L77.50-0.65Q77.33-0.31 76.75-0.05L76.75-0.05L76.75-0.05Q76.18 0.22 75.48 0.22L75.48 0.22L75.48 0.22Q73.30 0.22 73.30-1.75L73.30-1.75L73.30-1.75Q73.30-2.59 73.73-4.75L73.73-4.75L73.73-4.75Q74.16-6.91 74.16-7.58L74.16-7.58L74.16-7.58Q74.16-8.62 73.18-8.62L73.18-8.62L73.18-8.62Q72.38-8.62 71.65-7.58L71.65-7.58L71.65-7.58Q70.92-6.55 70.44-4.75L70.44-4.75L69.62-0.26L69.62-0.26Q70.37-0.34 70.85-0.94L70.85-0.94L71.21-0.65L71.21-0.65Q70.49 0.22 69.41 0.22L69.41 0.22L69.41 0.22Q68.33 0.22 67.72-0.34L67.72-0.34L67.72-0.34Q67.10-0.89 67.10-1.78L67.10-1.78L67.10-1.78Q67.10-2.11 67.49-4.42L67.49-4.42L68.28-8.86L68.28-8.86Q67.56-8.78 67.08-8.18L67.08-8.18L66.72-8.47L66.72-8.47Q67.44-9.34 68.53-9.34L68.53-9.34L68.53-9.34Q69.62-9.34 70.22-8.78L70.22-8.78L70.22-8.78Q70.82-8.23 70.82-7.22L70.82-7.22L70.82-7.08L70.82-7.08Q71.81-9.34 73.90-9.34L73.90-9.34L73.90-9.34Q75.31-9.34 76.10-8.53L76.10-8.53L76.10-8.53Q76.90-7.73 76.90-6.31L76.90-6.31L76.90-6.31Q76.90-5.57 76.44-3.44L76.44-3.44L76.44-3.44Q75.98-1.32 75.94-0.26" fill="#0051a2" stroke="none" stroke-width="none" transform="translate(-69.40997314453125,5.707598131986762)" style="fill: rgb(64, 142, 224);"></path></g><g class="path" style="transform: matrix(1, 0, 0, 1, 0, 14.925); opacity: 0.05; transform-origin: 14.065px 3.2476px; animation: 1s linear 0.406154s 1 normal forwards running float-btt-in-d7387ceb-f3ca-45ed-b548-ac0c44699b5b;"><path d="M86.52 2.62L86.52 2.62L86.52 2.62Q87.38 2.62 88.01 1.94L88.01 1.94L88.34 2.23L88.34 2.23Q87.77 3.05 86.52 3.05L86.52 3.05L86.52 3.05Q85.99 3.05 85.44 2.93L85.44 2.93L85.44 2.93Q83.81 4.42 81.26 4.42L81.26 4.42L81.26 4.42Q79.75 4.42 78.92 3.90L78.92 3.90L78.92 3.90Q78.10 3.38 78.10 2.56L78.10 2.56L78.10 2.56Q78.10 1.73 78.61 1.24L78.61 1.24L78.61 1.24Q79.13 0.74 80.45 0.74L80.45 0.74L80.45 0.74Q81.77 0.74 83.93 1.82L83.93 1.82L84.67-2.16L84.67-2.16Q83.59-0.17 81.89-0.17L81.89-0.17L81.89-0.17Q78.62-0.17 78.62-3.38L78.62-3.38L78.62-3.38Q78.62-6.07 79.98-7.70L79.98-7.70L79.98-7.70Q81.34-9.34 83.45-9.34L83.45-9.34L83.45-9.34Q84.67-9.34 85.34-8.59L85.34-8.59L85.34-8.59Q85.54-8.38 85.73-7.94L85.73-7.94L85.94-9.12L85.94-9.12Q87.72-9.12 88.54-9.26L88.54-9.26L88.85-9.34L87.26-0.48L87.26-0.48Q86.90 1.39 85.82 2.54L85.82 2.54L85.82 2.54Q86.14 2.62 86.52 2.62zM81.34-2.64L81.34-2.64Q81.34-1.54 81.55-1.16L81.55-1.16L81.55-1.16Q81.77-0.79 82.37-0.79L82.37-0.79L82.37-0.79Q82.97-0.79 83.59-1.44L83.59-1.44L83.59-1.44Q84.22-2.09 84.49-2.65L84.49-2.65L84.49-2.65Q84.77-3.22 84.96-3.74L84.96-3.74L85.46-6.50L85.46-6.67L85.46-6.67Q85.46-8.88 83.45-8.88L83.45-8.88L83.45-8.88Q82.68-8.88 82.01-6.79L82.01-6.79L82.01-6.79Q81.34-4.70 81.34-2.64L81.34-2.64zM81.17 3.94L81.17 3.94L81.17 3.94Q83.09 3.94 83.76 2.28L83.76 2.28L83.42 2.11L83.42 2.11Q83.14 1.97 83.08 1.93L83.08 1.93L83.08 1.93Q83.02 1.90 82.75 1.78L82.75 1.78L82.75 1.78Q82.49 1.66 82.37 1.62L82.37 1.62L82.37 1.62Q82.25 1.58 82.00 1.49L82.00 1.49L82.00 1.49Q81.74 1.39 81.58 1.36L81.58 1.36L81.58 1.36Q81.41 1.32 81.19 1.27L81.19 1.27L81.19 1.27Q80.83 1.20 80.14 1.20L80.14 1.20L80.14 1.20Q79.44 1.20 79.02 1.54L79.02 1.54L79.02 1.54Q78.60 1.87 78.60 2.52L78.60 2.52L78.60 2.52Q78.60 3.17 79.30 3.55L79.30 3.55L79.30 3.55Q79.99 3.94 81.17 3.94" fill="#0051a2" stroke="none" stroke-width="none" transform="translate(-69.40997314453125,5.707598131986762)" style="fill: rgb(137, 191, 248);"></path></g><g class="path" style="transform: matrix(1, 0, 0, 1, 0, 14.925); opacity: 0.05; transform-origin: 30.945px 1.1476px; animation: 1s linear 0.456923s 1 normal forwards running float-btt-in-d7387ceb-f3ca-45ed-b548-ac0c44699b5b;"><path d="M104.18-0.26L104.18-0.26L104.18-0.26Q104.76-0.26 105.38-0.94L105.38-0.94L105.74-0.65L105.74-0.65Q105.58-0.31 105.00-0.05L105.00-0.05L105.00-0.05Q104.42 0.22 103.73 0.22L103.73 0.22L103.73 0.22Q101.54 0.22 101.54-1.75L101.54-1.75L101.54-1.75Q101.54-2.59 101.98-4.75L101.98-4.75L101.98-4.75Q102.41-6.91 102.41-7.58L102.41-7.58L102.41-7.58Q102.41-8.62 101.42-8.62L101.42-8.62L101.42-8.62Q100.63-8.62 99.90-7.58L99.90-7.58L99.90-7.58Q99.17-6.55 98.69-4.75L98.69-4.75L97.87-0.26L97.87-0.26Q98.62-0.34 99.10-0.94L99.10-0.94L99.46-0.65L99.46-0.65Q98.74 0.22 97.66 0.22L97.66 0.22L97.66 0.22Q96.58 0.22 95.96-0.34L95.96-0.34L95.96-0.34Q95.35-0.89 95.35-1.78L95.35-1.78L95.35-1.78Q95.35-2.11 95.74-4.42L95.74-4.42L96.53-8.86L96.53-8.86Q95.81-8.78 95.33-8.18L95.33-8.18L94.97-8.47L94.97-8.47Q95.69-9.34 96.78-9.34L96.78-9.34L96.78-9.34Q97.87-9.34 98.47-8.78L98.47-8.78L98.47-8.78Q99.07-8.23 99.07-7.22L99.07-7.22L99.07-7.08L99.07-7.08Q100.06-9.34 102.14-9.34L102.14-9.34L102.14-9.34Q103.56-9.34 104.35-8.53L104.35-8.53L104.35-8.53Q105.14-7.73 105.14-6.31L105.14-6.31L105.14-6.31Q105.14-5.57 104.69-3.44L104.69-3.44L104.69-3.44Q104.23-1.32 104.18-0.26" fill="#0051a2" stroke="none" stroke-width="none" transform="translate(-69.40997314453125,5.707598131986762)" style="fill: rgb(227, 241, 255);"></path></g><g class="path" style="transform: matrix(1, 0, 0, 1, 0, 14.925); opacity: 0.05; transform-origin: 41.59px 1.1476px; animation: 1s linear 0.507692s 1 normal forwards running float-btt-in-d7387ceb-f3ca-45ed-b548-ac0c44699b5b;"><path d="M112.06-9.34L112.06-9.34L112.06-9.34Q115.10-9.34 115.10-6.91L115.10-6.91L115.10-6.91Q115.10-5.40 113.68-4.62L113.68-4.62L113.68-4.62Q112.25-3.84 109.61-3.82L109.61-3.82L109.61-3.82Q109.56-2.95 109.56-2.45L109.56-2.45L109.56-2.45Q109.56-1.37 110.05-0.85L110.05-0.85L110.05-0.85Q110.54-0.34 111.29-0.34L111.29-0.34L111.29-0.34Q112.03-0.34 112.64-0.62L112.64-0.62L112.64-0.62Q113.26-0.91 113.62-1.31L113.62-1.31L113.62-1.31Q113.98-1.70 114.24-2.14L114.24-2.14L114.24-2.14Q114.72-2.93 114.72-3.14L114.72-3.14L115.15-2.95L115.15-2.95Q115.08-2.57 114.72-1.93L114.72-1.93L114.72-1.93Q114.36-1.30 113.93-0.89L113.93-0.89L113.93-0.89Q113.50-0.48 112.66-0.13L112.66-0.13L112.66-0.13Q111.82 0.22 110.78 0.22L110.78 0.22L110.78 0.22Q108.84 0.22 107.84-0.71L107.84-0.71L107.84-0.71Q106.85-1.63 106.85-3.24L106.85-3.24L106.85-3.24Q106.85-6.10 108.26-7.72L108.26-7.72L108.26-7.72Q109.68-9.34 112.06-9.34zM114.50-6.91L114.50-6.91Q114.50-7.70 114.04-8.22L114.04-8.22L114.04-8.22Q113.57-8.74 112.64-8.74L112.64-8.74L112.64-8.74Q111.72-8.74 110.84-7.63L110.84-7.63L110.84-7.63Q109.97-6.53 109.68-4.37L109.68-4.37L109.68-4.37Q114.50-4.39 114.50-6.91L114.50-6.91" fill="#0051a2" stroke="none" stroke-width="none" transform="translate(-69.40997314453125,5.707598131986762)" style="fill: rgb(0, 81, 162);"></path></g><g class="path" style="transform: matrix(1, 0, 0, 1, 0, 14.925); opacity: 0.05; transform-origin: 54.62px 1.1476px; animation: 1s linear 0.558462s 1 normal forwards running float-btt-in-d7387ceb-f3ca-45ed-b548-ac0c44699b5b;"><path d="M128.62-6.36L128.62-6.36L128.62-6.36Q128.11-6.86 128.11-7.58L128.11-7.58L128.11-7.58Q128.11-8.30 128.62-8.82L128.62-8.82L128.62-8.82Q129.12-9.34 129.76-9.34L129.76-9.34L129.76-9.34Q130.39-9.34 130.84-9.01L130.84-9.01L130.84-9.01Q131.28-8.69 131.47-8.18L131.47-8.18L131.47-8.18Q131.50-8.16 131.50-8.14L131.50-8.14L131.50-8.11L131.50-8.11Q131.78-7.49 131.78-6.40L131.78-6.40L131.78-6.40Q131.78-5.30 131.64-4.54L131.64-4.54L131.64-4.54Q131.50-3.77 131.11-2.90L131.11-2.90L131.11-2.90Q130.73-2.04 130.18-1.36L130.18-1.36L130.18-1.36Q129.62-0.67 128.70-0.23L128.70-0.23L128.70-0.23Q127.78 0.22 126.65 0.22L126.65 0.22L126.65 0.22Q124.73 0.22 123.77-1.18L123.77-1.18L123.77-1.18Q122.62 0.22 120.62 0.22L120.62 0.22L120.62 0.22Q119.09 0.22 118.12-0.74L118.12-0.74L118.12-0.74Q117.14-1.70 117.14-2.95L117.14-2.95L117.14-2.95Q117.14-4.20 117.59-6.04L117.59-6.04L117.59-6.04Q118.03-7.87 118.08-8.86L118.08-8.86L118.08-8.86Q117.70-8.83 117.34-8.58L117.34-8.58L117.34-8.58Q116.98-8.33 116.81-8.09L116.81-8.09L116.64-7.85L116.28-8.14L116.28-8.14Q116.35-8.28 116.50-8.47L116.50-8.47L116.50-8.47Q116.64-8.66 117.23-9L117.23-9L117.23-9Q117.82-9.34 118.70-9.34L118.70-9.34L118.70-9.34Q119.59-9.34 120.13-8.76L120.13-8.76L120.13-8.76Q120.67-8.18 120.67-7.30L120.67-7.30L120.67-7.30Q120.67-6.41 120.19-4.55L120.19-4.55L120.19-4.55Q119.71-2.69 119.71-1.93L119.71-1.93L119.71-1.93Q119.71-1.18 120.06-0.74L120.06-0.74L120.06-0.74Q120.41-0.31 121.06-0.31L121.06-0.31L121.06-0.31Q122.45-0.31 123.43-1.75L123.43-1.75L123.43-1.75Q123.17-2.42 123.17-3.31L123.17-3.31L123.17-3.31Q123.17-4.20 123.61-6.04L123.61-6.04L123.61-6.04Q124.06-7.87 124.10-8.86L124.10-8.86L124.10-8.86Q123.72-8.83 123.36-8.58L123.36-8.58L123.36-8.58Q123-8.33 122.83-8.09L122.83-8.09L122.66-7.85L122.30-8.14L122.30-8.14Q122.38-8.28 122.52-8.47L122.52-8.47L122.52-8.47Q122.66-8.66 123.25-9L123.25-9L123.25-9Q123.84-9.34 124.73-9.34L124.73-9.34L124.73-9.34Q125.62-9.34 126.16-8.76L126.16-8.76L126.16-8.76Q126.70-8.18 126.70-7.30L126.70-7.30L126.70-7.30Q126.70-6.41 126.22-4.55L126.22-4.55L126.22-4.55Q125.74-2.69 125.74-1.93L125.74-1.93L125.74-1.93Q125.74-1.18 126.08-0.74L126.08-0.74L126.08-0.74Q126.43-0.31 127.08-0.31L127.08-0.31L127.08-0.31Q128.69-0.31 129.96-2.05L129.96-2.05L129.96-2.05Q131.23-3.79 131.23-5.98L131.23-5.98L131.23-5.98Q131.23-6.14 131.18-6.48L131.18-6.48L131.18-6.48Q130.68-5.86 129.90-5.86L129.90-5.86L129.90-5.86Q129.12-5.86 128.62-6.36" fill="#0051a2" stroke="none" stroke-width="none" transform="translate(-69.40997314453125,5.707598131986762)" style="fill: rgb(27, 117, 190);"></path></g><g class="path" style="transform: matrix(1, 0, 0, 1, 0, 14.925); opacity: 0.05; transform-origin: 66.96px 0.597599px; animation: 1s linear 0.609231s 1 normal forwards running float-btt-in-d7387ceb-f3ca-45ed-b548-ac0c44699b5b;"><path d="M135.19-0.41L135.19-0.41L135.19-0.41Q137.57-0.41 137.57-3.91L137.57-3.91L137.57-3.91Q137.57-4.78 137.32-5.95L137.32-5.95L137.32-5.95Q137.06-7.13 137.02-7.42L137.02-7.42L137.02-7.42Q135.55-5.90 133.73-5.59L133.73-5.59L133.73-6.17L133.73-6.17Q135.46-6.55 136.97-8.14L136.97-8.14L136.97-8.23L136.97-8.23Q136.97-8.81 137.14-9.36L137.14-9.36L137.14-9.36Q137.30-9.91 137.47-10.18L137.47-10.18L137.64-10.44L138.22-10.44L138.22-10.44Q138.22-9.38 138.55-8.51L138.55-8.51L138.55-8.51Q138.89-7.63 139.30-7.09L139.30-7.09L139.30-7.09Q139.70-6.55 140.04-5.68L140.04-5.68L140.04-5.68Q140.38-4.80 140.38-3.74L140.38-3.74L140.38-3.74Q140.38-2.04 139.09-0.91L139.09-0.91L139.09-0.91Q137.81 0.22 136.01 0.22L136.01 0.22L136.01 0.22Q134.21 0.22 133.28-0.60L133.28-0.60L133.28-0.60Q132.36-1.42 132.36-2.48L132.36-2.48L132.36-2.48Q132.36-3.55 132.89-4.02L132.89-4.02L132.89-4.02Q133.42-4.49 134.14-4.49L134.14-4.49L134.14-4.49Q134.86-4.49 135.32-4.02L135.32-4.02L135.32-4.02Q135.79-3.55 135.79-2.82L135.79-2.82L135.79-2.82Q135.79-2.09 135.34-1.58L135.34-1.58L135.34-1.58Q134.88-1.08 134.16-1.08L134.16-1.08L134.16-1.08Q133.85-1.08 133.51-1.18L133.51-1.18L133.51-1.18Q134.04-0.41 135.19-0.41" fill="#0051a2" stroke="none" stroke-width="none" transform="translate(-69.40997314453125,5.707598131986762)" style="fill: rgb(64, 142, 224);"></path></g></g>
</g>
</g>
<style id="float-btt-in-d7387ceb-f3ca-45ed-b548-ac0c44699b5b" data-anikit="">@keyframes float-btt-in-d7387ceb-f3ca-45ed-b548-ac0c44699b5b
{
  0% {
    animation-timing-function: cubic-bezier(0.2242,0.7499,0.3142,0.8148);
    transform: translate(0px,14.925px) rotate(0deg) scale(1,1) skewX(0deg) skewY(0deg);
    opacity: 0.05;
  }
  100% {
    transform: translate(0px,0px) rotate(0deg) scale(1,1) skewX(0deg) skewY(0deg);
    opacity: 1;
  }
}</style></svg>