<?xml version="1.0" encoding="utf-8"?>
<svg xmlns="http://www.w3.org/2000/svg" style="margin: auto; background: none; display: block; shape-rendering: auto;" width="248" height="45" preserveAspectRatio="xMidYMid">
<style type="text/css">
  text {
    text-anchor: middle; font-size: 46px; opacity: 0;
  }
</style>
<g style="transform-origin:124px 22.5px;transform:scale(1)">
<g transform="translate(124,22.5)">
  <g transform="translate(0,0)"><g class="path" style="transform: matrix(1, 0, 0, 1, 0, 14.925); opacity: 0.05; transform-origin: -47.585px -0.385536px; animation: 1s linear 0s 1 normal forwards running float-btt-in-d7387ceb-f3ca-45ed-b548-ac0c44699b5b;"><path d="M21.71 5.29L21.71 5.29L21.71 5.29Q18.77 7.04 15.36 7.04L15.36 7.04L15.36 7.04Q11.96 7.04 10.17 5.96L10.17 5.96L10.17 5.96Q8.37 4.88 8.37 3.24L8.37 3.24L8.37 3.24Q8.37 1.61 9.68 0.62L9.68 0.62L9.68 0.62Q10.99-0.37 13.62-0.37L13.62-0.37L13.62-0.37Q17.20-0.37 20.06 2.30L20.06 2.30L20.06 2.30Q20.61 0.60 20.98-1.47L20.98-1.47L21.25-3.17L19.32-3.17L19.32-4.19L21.44-4.19L24.93-24.15L24.93-24.15Q25.16-25.85 25.58-26.91L25.58-26.91L25.58-26.91Q16.05-26.17 10.88-22.88L10.88-22.88L10.88-22.88Q5.70-19.60 5.70-14.26L5.70-14.26L5.70-14.26Q5.70-11.87 7.36-10.21L7.36-10.21L7.36-10.21Q8.51-9.11 10.40-8.53L10.40-8.53L10.40-8.53Q12.28-7.96 13.50-7.89L13.50-7.89L13.50-7.89Q14.72-7.82 14.81-7.91L14.81-7.91L14.81-6.95L14.81-6.95Q9.38-6.95 6.76-9.52L6.76-9.52L6.76-9.52Q4.83-11.32 4.83-14.26L4.83-14.26L4.83-14.26Q4.83-20.10 10.30-23.62L10.30-23.62L10.30-23.62Q15.78-27.14 25.94-27.83L25.94-27.83L25.94-27.83Q28.11-32.66 33.99-32.66L33.99-32.66L33.99-31.46L33.99-31.46Q32.84-31.33 32.41-30.54L32.41-30.54L32.41-30.54Q31.97-29.76 31.65-28.01L31.65-28.01L31.65-28.01Q35.47-27.97 38.20-27.07L38.20-27.07L38.20-27.07Q40.94-26.17 42.37-24.70L42.37-24.70L42.37-24.70Q45.08-21.90 45.08-18.12L45.08-18.12L45.08-18.12Q45.08-15.23 44.00-12.86L44.00-12.86L44.00-12.86Q42.92-10.49 41.26-8.97L41.26-8.97L41.26-8.97Q39.61-7.45 37.21-6.35L37.21-6.35L37.21-6.35Q33.26-4.46 27.69-3.68L27.69-3.68L27.69-3.59L27.69-3.59Q26.73 1.79 22.54 4.74L22.54 4.74L22.54 4.74Q24.43 6.44 26.68 7.41L26.68 7.41L26.68 7.41Q28.93 8.37 32.48 8.37L32.48 8.37L32.48 9.38L32.48 9.38Q28.66 9.38 26.20 8.30L26.20 8.30L26.20 8.30Q23.74 7.22 21.71 5.29zM43.88-18.12L43.88-18.12L43.88-18.12Q43.88-22.17 40.83-24.61L40.83-24.61L40.83-24.61Q37.77-27.05 31.56-27.14L31.56-27.14L31.56-27.14Q29.85-14.63 27.92-4.74L27.92-4.74L27.92-4.74Q43.88-7.04 43.88-18.12zM19.69 3.31L19.69 3.31Q18.22 1.93 16.88 1.22L16.88 1.22L16.88 1.22Q15.55 0.51 13.64 0.51L13.64 0.51L13.64 0.51Q11.73 0.51 10.60 1.22L10.60 1.22L10.60 1.22Q9.48 1.93 9.48 3.20L9.48 3.20L9.48 3.20Q9.48 4.46 10.95 5.31L10.95 5.31L10.95 5.31Q12.42 6.16 14.49 6.16L14.49 6.16L14.49 6.16Q16.56 6.16 17.78 5.57L17.78 5.57L17.78 5.57Q19.00 4.97 19.69 3.31L19.69 3.31" fill="#0051a2" stroke="none" stroke-width="none" transform="translate(-72.53999662399292,11.254461814880374)" style="fill: rgb(0, 81, 162);"></path></g><g class="path" style="transform: matrix(1, 0, 0, 1, 0, 14.925); opacity: 0.05; transform-origin: -16.65px 2.51446px; animation: 1s linear 0.066s 1 normal forwards running float-btt-in-d7387ceb-f3ca-45ed-b548-ac0c44699b5b;"><path d="M54.10 0.41L54.10 0.41Q50.55 0.41 48.71-1.36L48.71-1.36L48.71-1.36Q46.87-3.13 46.87-5.82L46.87-5.82L46.87-5.82Q46.87-8.51 47.36-10.42L47.36-10.42L47.36-10.42Q47.84-12.33 48.94-14.10L48.94-14.10L48.94-14.10Q50.05-15.87 52.28-16.88L52.28-16.88L52.28-16.88Q54.51-17.89 57.84-17.89L57.84-17.89L57.84-17.89Q61.18-17.89 63.04-16.12L63.04-16.12L63.04-16.12Q64.91-14.35 64.91-11.27L64.91-11.27L64.91-11.27Q64.91-6.03 62.12-2.81L62.12-2.81L62.12-2.81Q59.34 0.41 54.10 0.41L54.10 0.41zM52.07-4.32L52.07-4.32L52.07-4.32Q52.07-0.64 54.21-0.64L54.21-0.64L54.21-0.64Q56.35-0.64 58.03-4.35L58.03-4.35L58.03-4.35Q59.71-8.05 59.71-13.16L59.71-13.16L59.71-13.16Q59.71-17.02 57.61-17.02L57.61-17.02L57.61-17.02Q55.52-17.02 53.80-13.50L53.80-13.50L53.80-13.50Q52.07-9.98 52.07-4.32" fill="#0051a2" stroke="none" stroke-width="none" transform="translate(-72.53999662399292,11.254461814880374)" style="fill: rgb(27, 117, 190);"></path></g><g class="path" style="transform: matrix(1, 0, 0, 1, 0, 14.925); opacity: 0.05; transform-origin: 1.27001px -3.44554px; animation: 1s linear 0.132s 1 normal forwards running float-btt-in-d7387ceb-f3ca-45ed-b548-ac0c44699b5b;"><path d="M75.58-1.66L75.58-1.66L75.58-1.66Q74.98-0.87 73.94-0.23L73.94-0.23L73.94-0.23Q72.91 0.41 71.25 0.41L71.25 0.41L71.25 0.41Q69.60 0.41 68.45-0.64L68.45-0.64L68.45-0.64Q67.30-1.70 67.30-3.63L67.30-3.63L67.30-3.63Q67.30-4.00 67.39-4.83L67.39-4.83L70.38-21.39L70.38-21.39Q71.21-25.94 72.66-27.88L72.66-27.88L72.66-27.88Q74.11-29.81 76.50-29.81L76.50-29.81L76.50-29.81Q78.15-29.81 79.23-28.57L79.23-28.57L79.23-28.57Q80.32-27.32 80.32-24.79L80.32-24.79L80.32-24.79Q80.32-22.26 78.36-17.57L78.36-17.57L78.36-17.57Q76.41-12.88 76.41-10.72L76.41-10.72L75.58-10.72L75.58-10.72Q75.58-13.16 77.51-17.69L77.51-17.69L77.51-17.69Q79.44-22.22 79.44-24.93L79.44-24.93L79.44-24.93Q79.44-26.59 78.68-27.78L78.68-27.78L78.68-27.78Q77.92-28.98 76.82-28.98L76.82-28.98L76.82-28.98Q76.77-27.78 75.23-18.24L75.23-18.24L75.23-18.24Q73.69-8.69 72.17-0.51L72.17-0.51L72.17-0.51Q73.46-0.51 74.57-1.84L74.57-1.84L74.57-1.84Q75.67-3.17 76.13-4.51L76.13-4.51L76.64-5.89L77.46-5.52L77.46-5.52Q77.33-4.88 76.75-3.66L76.75-3.66L76.75-3.66Q76.18-2.44 75.58-1.66" fill="#0051a2" stroke="none" stroke-width="none" transform="translate(-72.53999662399292,11.254461814880374)" style="fill: rgb(64, 142, 224);"></path></g><g class="path" style="transform: matrix(1, 0, 0, 1, 0, 14.925); opacity: 0.05; transform-origin: 12.075px 2.51446px; animation: 1s linear 0.198s 1 normal forwards running float-btt-in-d7387ceb-f3ca-45ed-b548-ac0c44699b5b;"><path d="M88.46-1.24L88.46-1.24Q87.08 0.41 85.01 0.41L85.01 0.41L85.01 0.41Q82.94 0.41 81.77-0.64L81.77-0.64L81.77-0.64Q80.59-1.70 80.59-3.40L80.59-3.40L80.59-3.40Q80.59-4.00 81.33-8.42L81.33-8.42L82.85-16.65L80.91-16.65L81.01-17.48L82.98-17.48L82.98-17.48Q86.39-17.48 88.00-17.76L88.00-17.76L88.64-17.89L85.47-0.51L85.47-0.51Q86.85-0.64 87.77-1.79L87.77-1.79L88.46-1.24" fill="#0051a2" stroke="none" stroke-width="none" transform="translate(-72.53999662399292,11.254461814880374)" style="fill: rgb(137, 191, 248);"></path></g><g class="path" style="transform: matrix(1, 0, 0, 1, 0, 14.925); opacity: 0.05; transform-origin: 14.235px -13.4205px; animation: 1s linear 0.264s 1 normal forwards running float-btt-in-d7387ceb-f3ca-45ed-b548-ac0c44699b5b;"><path d="M84.41-22.31L84.41-22.31L84.41-22.31Q83.44-23.28 83.44-24.66L83.44-24.66L83.44-24.66Q83.44-26.04 84.41-27.02L84.41-27.02L84.41-27.02Q85.38-28.01 86.76-28.01L86.76-28.01L86.76-28.01Q88.14-28.01 89.13-27.02L89.13-27.02L89.13-27.02Q90.11-26.04 90.11-24.66L90.11-24.66L90.11-24.66Q90.11-23.28 89.13-22.31L89.13-22.31L89.13-22.31Q88.14-21.34 86.76-21.34L86.76-21.34L86.76-21.34Q85.38-21.34 84.41-22.31" fill="#0051a2" stroke="none" stroke-width="none" transform="translate(-72.53999662399292,11.254461814880374)" style="fill: rgb(227, 241, 255);"></path></g><g class="path" style="transform: matrix(1, 0, 0, 1, 0, 14.925); opacity: 0.05; transform-origin: 25.76px -0.890538px; animation: 1s linear 0.33s 1 normal forwards running float-btt-in-d7387ceb-f3ca-45ed-b548-ac0c44699b5b;"><path d="M91.59-17.48L93.93-17.48L95.17-24.29L95.17-24.29Q98.58-24.29 100.23-24.56L100.23-24.56L100.83-24.70L100.83-24.70Q100.19-21.48 99.41-17.48L99.41-17.48L105.11-17.48L105.02-16.65L99.27-16.65L99.27-16.65Q96.97-4.78 96.97-2.35L96.97-2.35L96.97-2.35Q96.97-0.87 98.53-0.87L98.53-0.87L98.53-0.87Q100.10-0.87 101.38-2.85L101.38-2.85L101.38-2.85Q102.67-4.83 103.22-7.13L103.22-7.13L104.05-6.85L104.05-6.85Q102.35 0.41 97.01 0.41L97.01 0.41L97.01 0.41Q94.81 0.41 93.33-0.80L93.33-0.80L93.33-0.80Q91.86-2.02 91.86-4.21L91.86-4.21L91.86-4.21Q91.86-6.39 93.75-16.65L93.75-16.65L91.49-16.65L91.59-17.48" fill="#0051a2" stroke="none" stroke-width="none" transform="translate(-72.53999662399292,11.254461814880374)" style="fill: rgb(0, 81, 162);"></path></g><g class="path" style="transform: matrix(1, 0, 0, 1, 0, 14.925); opacity: 0.05; transform-origin: 38.025px 2.51446px; animation: 1s linear 0.396s 1 normal forwards running float-btt-in-d7387ceb-f3ca-45ed-b548-ac0c44699b5b;"><path d="M114.40-1.24L114.40-1.24Q113.02 0.41 110.95 0.41L110.95 0.41L110.95 0.41Q108.88 0.41 107.71-0.64L107.71-0.64L107.71-0.64Q106.54-1.70 106.54-3.40L106.54-3.40L106.54-3.40Q106.54-4.00 107.27-8.42L107.27-8.42L108.79-16.65L106.86-16.65L106.95-17.48L108.93-17.48L108.93-17.48Q112.33-17.48 113.94-17.76L113.94-17.76L114.59-17.89L111.41-0.51L111.41-0.51Q112.79-0.64 113.71-1.79L113.71-1.79L114.40-1.24" fill="#0051a2" stroke="none" stroke-width="none" transform="translate(-72.53999662399292,11.254461814880374)" style="fill: rgb(27, 117, 190);"></path></g><g class="path" style="transform: matrix(1, 0, 0, 1, 0, 14.925); opacity: 0.05; transform-origin: 40.185px -13.4205px; animation: 1s linear 0.462s 1 normal forwards running float-btt-in-d7387ceb-f3ca-45ed-b548-ac0c44699b5b;"><path d="M110.35-22.31L110.35-22.31L110.35-22.31Q109.39-23.28 109.39-24.66L109.39-24.66L109.39-24.66Q109.39-26.04 110.35-27.02L110.35-27.02L110.35-27.02Q111.32-28.01 112.70-28.01L112.70-28.01L112.70-28.01Q114.08-28.01 115.07-27.02L115.07-27.02L115.07-27.02Q116.06-26.04 116.06-24.66L116.06-24.66L116.06-24.66Q116.06-23.28 115.07-22.31L115.07-22.31L115.07-22.31Q114.08-21.34 112.70-21.34L112.70-21.34L112.70-21.34Q111.32-21.34 110.35-22.31" fill="#0051a2" stroke="none" stroke-width="none" transform="translate(-72.53999662399292,11.254461814880374)" style="fill: rgb(64, 142, 224);"></path></g><g class="path" style="transform: matrix(1, 0, 0, 1, 0, 14.925); opacity: 0.05; transform-origin: 52.81px 2.51446px; animation: 1s linear 0.528s 1 normal forwards running float-btt-in-d7387ceb-f3ca-45ed-b548-ac0c44699b5b;"><path d="M128.11-9.61L128.11-9.61L128.11-9.61Q127.14-10.58 127.14-11.96L127.14-11.96L127.14-11.96Q127.14-13.34 128.11-14.33L128.11-14.33L128.11-14.33Q129.08-15.32 130.46-15.32L130.46-15.32L130.46-15.32Q130.87-15.32 131.51-15.13L131.51-15.13L131.51-15.13Q130.64-16.74 128.25-16.74L128.25-16.74L128.25-16.74Q125.86-16.74 124.02-13.71L124.02-13.71L124.02-13.71Q122.18-10.67 122.18-4.69L122.18-4.69L122.18-4.69Q122.18-2.62 123.12-1.63L123.12-1.63L123.12-1.63Q124.06-0.64 125.49-0.64L125.49-0.64L125.49-0.64Q126.91-0.64 128.09-1.20L128.09-1.20L128.09-1.20Q129.26-1.75 129.95-2.51L129.95-2.51L129.95-2.51Q130.64-3.27 131.15-4.09L131.15-4.09L131.15-4.09Q132.07-5.61 132.07-6.03L132.07-6.03L132.89-5.66L132.89-5.66Q132.76-4.92 132.07-3.70L132.07-3.70L132.07-3.70Q131.38-2.48 130.55-1.70L130.55-1.70L130.55-1.70Q129.72-0.92 128.11-0.25L128.11-0.25L128.11-0.25Q126.50 0.41 124.52 0.41L124.52 0.41L124.52 0.41Q120.80 0.41 118.89-1.36L118.89-1.36L118.89-1.36Q116.98-3.13 116.98-6.21L116.98-6.21L116.98-6.21Q116.98-11.68 119.72-14.79L119.72-14.79L119.72-14.79Q122.45-17.89 127.14-17.89L127.14-17.89L127.14-17.89Q130.32-17.89 132.02-16.28L132.02-16.28L132.02-16.28Q133.72-14.67 133.72-12.05L133.72-12.05L133.72-12.05Q133.72-10.40 132.73-9.52L132.73-9.52L132.73-9.52Q131.74-8.65 130.41-8.65L130.41-8.65L130.41-8.65Q129.08-8.65 128.11-9.61" fill="#0051a2" stroke="none" stroke-width="none" transform="translate(-72.53999662399292,11.254461814880374)" style="fill: rgb(137, 191, 248);"></path></g><g class="path" style="transform: matrix(1, 0, 0, 1, 0, 14.925); opacity: 0.05; transform-origin: 69.69px 1.45446px; animation: 1s linear 0.594s 1 normal forwards running float-btt-in-d7387ceb-f3ca-45ed-b548-ac0c44699b5b;"><path d="M139.98-0.78L139.98-0.78L139.98-0.78Q144.53-0.78 144.53-7.50L144.53-7.50L144.53-7.50Q144.53-9.15 144.05-11.41L144.05-11.41L144.05-11.41Q143.57-13.66 143.47-14.21L143.47-14.21L143.47-14.21Q140.67-11.32 137.17-10.72L137.17-10.72L137.17-11.82L137.17-11.82Q140.48-12.56 143.38-15.59L143.38-15.59L143.38-15.78L143.38-15.78Q143.38-16.88 143.70-17.94L143.70-17.94L143.70-17.94Q144.03-19.00 144.35-19.50L144.35-19.50L144.67-20.01L145.77-20.01L145.77-20.01Q145.77-17.99 146.42-16.31L146.42-16.31L146.42-16.31Q147.06-14.63 147.84-13.59L147.84-13.59L147.84-13.59Q148.63-12.56 149.27-10.88L149.27-10.88L149.27-10.88Q149.91-9.20 149.91-7.18L149.91-7.18L149.91-7.18Q149.91-3.91 147.45-1.75L147.45-1.75L147.45-1.75Q144.99 0.41 141.54 0.41L141.54 0.41L141.54 0.41Q138.09 0.41 136.32-1.15L136.32-1.15L136.32-1.15Q134.55-2.71 134.55-4.76L134.55-4.76L134.55-4.76Q134.55-6.81 135.56-7.71L135.56-7.71L135.56-7.71Q136.57-8.60 137.95-8.60L137.95-8.60L137.95-8.60Q139.33-8.60 140.23-7.71L140.23-7.71L140.23-7.71Q141.13-6.81 141.13-5.41L141.13-5.41L141.13-5.41Q141.13-4.00 140.25-3.04L140.25-3.04L140.25-3.04Q139.38-2.07 138-2.07L138-2.07L138-2.07Q137.40-2.07 136.76-2.25L136.76-2.25L136.76-2.25Q137.77-0.78 139.98-0.78" fill="#0051a2" stroke="none" stroke-width="none" transform="translate(-72.53999662399292,11.254461814880374)" style="fill: rgb(227, 241, 255);"></path></g></g>
</g>
</g>
<style id="float-btt-in-d7387ceb-f3ca-45ed-b548-ac0c44699b5b" data-anikit="">@keyframes float-btt-in-d7387ceb-f3ca-45ed-b548-ac0c44699b5b
{
  0% {
    animation-timing-function: cubic-bezier(0.2242,0.7499,0.3142,0.8148);
    transform: translate(0px,14.925px) rotate(0deg) scale(1,1) skewX(0deg) skewY(0deg);
    opacity: 0.05;
  }
  100% {
    transform: translate(0px,0px) rotate(0deg) scale(1,1) skewX(0deg) skewY(0deg);
    opacity: 1;
  }
}</style></svg>